<svg width="17" height="17" viewBox="0 0 17 17" fill="none" xmlns="http://www.w3.org/2000/svg">
<path fill-rule="evenodd" clip-rule="evenodd" d="M8.81494 1.5C12.6809 1.5 15.8149 4.63401 15.8149 8.5C15.8149 12.366 12.6809 15.5 8.81494 15.5C4.94895 15.5 1.81494 12.366 1.81494 8.5C1.81494 4.63401 4.94895 1.5 8.81494 1.5ZM3.81494 8.5C3.81494 11.2614 6.05352 13.5 8.81494 13.5C9.83405 13.5 10.7819 13.1951 11.5724 12.6716L4.64338 5.74255C4.11983 6.533 3.81494 7.48089 3.81494 8.5ZM8.81494 3.5C7.79583 3.5 6.84794 3.80489 6.05749 4.32843L12.9865 11.2574C13.51 10.467 13.8149 9.51911 13.8149 8.5C13.8149 5.73858 11.5764 3.5 8.81494 3.5Z" fill="#F42B67"/>
</svg>
