<svg width="17" height="17" viewBox="0 0 17 17" fill="none" xmlns="http://www.w3.org/2000/svg">
<path d="M10.3815 1.83334H7.24816C6.55483 1.83334 5.98816 2.39334 5.98816 3.08668V3.71334C5.98816 4.40668 6.54816 4.96668 7.24149 4.96668H10.3815C11.0748 4.96668 11.6348 4.40668 11.6348 3.71334V3.08668C11.6415 2.39334 11.0748 1.83334 10.3815 1.83334Z" fill="#5584FC"/>
<path d="M12.3077 3.71298C12.3077 4.77298 11.441 5.63965 10.381 5.63965H7.24769C6.18769 5.63965 5.32102 4.77298 5.32102 3.71298C5.32102 3.33965 4.92102 3.10632 4.58769 3.27965C3.64769 3.77965 3.00769 4.77298 3.00769 5.91298V12.1863C3.00769 13.8263 4.34769 15.1663 5.98769 15.1663H11.641C13.281 15.1663 14.621 13.8263 14.621 12.1863V5.91298C14.621 4.77298 13.981 3.77965 13.041 3.27965C12.7077 3.10632 12.3077 3.33965 12.3077 3.71298ZM9.06772 11.7997H6.14769C5.87436 11.7997 5.64769 11.573 5.64769 11.2997C5.64769 11.0263 5.87436 10.7997 6.14769 10.7997H9.06772C9.34105 10.7997 9.56772 11.0263 9.56772 11.2997C9.56772 11.573 9.34105 11.7997 9.06772 11.7997ZM10.8144 9.13299H6.14769C5.87436 9.13299 5.64769 8.90632 5.64769 8.63299C5.64769 8.35966 5.87436 8.13299 6.14769 8.13299H10.8144C11.0877 8.13299 11.3144 8.35966 11.3144 8.63299C11.3144 8.90632 11.0877 9.13299 10.8144 9.13299Z" fill="#5584FC"/>
</svg>
