<svg width="17" height="17" viewBox="0 0 17 17" fill="none" xmlns="http://www.w3.org/2000/svg">
<path d="M10.2149 8.5L12.9649 5.75C13.3649 5.35 13.3649 4.75 12.9649 4.35C12.8149 4.15 12.5649 4 12.3149 4C12.0649 4 11.8149 4.1 11.6149 4.3L8.81494 7.1L6.06494 4.35C5.66494 3.95 5.01494 3.95 4.66494 4.35C4.46494 4.5 4.31494 4.75 4.31494 5.05C4.31494 5.35 4.41494 5.55 4.61494 5.75L7.36494 8.5L4.61494 11.25C4.46494 11.45 4.31494 11.7 4.31494 12C4.31494 12.25 4.41494 12.5 4.61494 12.7C4.81494 12.9 5.06494 13 5.31494 13C5.56494 13 5.81494 12.9 6.01494 12.7L8.76494 9.95L11.5149 12.7C11.9149 13.1 12.5649 13.1 12.9149 12.7C13.3149 12.3 13.3149 11.65 12.9149 11.3L10.2149 8.5Z" fill="#B1A9BA"/>
</svg>
