<svg width="17" height="17" viewBox="0 0 17 17" fill="none" xmlns="http://www.w3.org/2000/svg">
<path d="M5.54829 11.1333C5.59945 11.0519 5.63239 10.9604 5.64486 10.8651C5.65733 10.7697 5.64903 10.6728 5.62053 10.581C5.59203 10.4892 5.54401 10.4046 5.47976 10.3331C5.41551 10.2616 5.33655 10.2048 5.24829 10.1667C4.46198 9.83993 3.80292 9.26686 3.37015 8.53354C2.93737 7.80023 2.75425 6.94628 2.84829 6.09999C2.93695 5.17525 3.34472 4.3102 4.00161 3.65331C4.6585 2.99642 5.52355 2.58865 6.44829 2.49999C7.18165 2.44105 7.91716 2.58381 8.5752 2.91284C9.23325 3.24186 9.78877 3.74461 10.1816 4.36666C10.2677 4.4844 10.3855 4.57516 10.5213 4.6283C10.6571 4.68143 10.8052 4.69474 10.9483 4.66666C11.0471 4.63673 11.1377 4.58425 11.2128 4.51334C11.2879 4.44244 11.3455 4.35507 11.381 4.2581C11.4166 4.16114 11.4291 4.05724 11.4176 3.9546C11.4062 3.85196 11.371 3.75339 11.315 3.66666C10.7958 2.82884 10.052 2.1535 9.16813 1.71744C8.28423 1.28138 7.2957 1.1021 6.31496 1.19999C5.13939 1.31592 4.03556 1.81884 3.17669 2.62986C2.31782 3.44088 1.7525 4.51408 1.56944 5.68109C1.38638 6.84809 1.59594 8.04285 2.16524 9.07789C2.73453 10.1129 3.63134 10.9297 4.71496 11.4C4.86267 11.4635 5.02836 11.4715 5.18149 11.4225C5.33463 11.3735 5.4649 11.2708 5.54829 11.1333Z" fill="#FFDF6E"/>
<path d="M6.3149 4.33335V6.00002H4.64823C4.47142 6.00002 4.30185 6.07026 4.17683 6.19528C4.05181 6.32031 3.98157 6.48988 3.98157 6.66669C3.98157 6.8435 4.05181 7.01307 4.17683 7.13809C4.30185 7.26312 4.47142 7.33335 4.64823 7.33335H7.64823V4.33335C7.64823 4.15654 7.578 3.98697 7.45297 3.86195C7.32795 3.73693 7.15838 3.66669 6.98157 3.66669C6.80476 3.66669 6.63519 3.73693 6.51016 3.86195C6.38514 3.98697 6.3149 4.15654 6.3149 4.33335Z" fill="#FFDF6E"/>
<path d="M16.0483 14.8333L11.0483 6.16667C10.9885 6.0702 10.905 5.99059 10.8059 5.93538C10.7067 5.88017 10.5951 5.8512 10.4816 5.8512C10.3681 5.8512 10.2565 5.88017 10.1573 5.93538C10.0581 5.99059 9.97472 6.0702 9.91493 6.16667L4.91493 14.8333C4.85685 14.9339 4.82604 15.0479 4.82557 15.164C4.82509 15.2802 4.85496 15.3944 4.91221 15.4954C4.96947 15.5965 5.05212 15.6808 5.15199 15.7401C5.25186 15.7993 5.36548 15.8315 5.48159 15.8333H15.4816C15.5977 15.8315 15.7113 15.7993 15.8112 15.7401C15.9111 15.6808 15.9937 15.5965 16.051 15.4954C16.1082 15.3944 16.1381 15.2802 16.1376 15.164C16.1371 15.0479 16.1063 14.9339 16.0483 14.8333ZM10.4816 14.5C10.3497 14.5 10.2208 14.4609 10.1112 14.3877C10.0016 14.3144 9.91613 14.2103 9.86567 14.0885C9.81522 13.9666 9.80201 13.8326 9.82774 13.7033C9.85346 13.574 9.91695 13.4552 10.0102 13.3619C10.1034 13.2687 10.2222 13.2052 10.3515 13.1795C10.4809 13.1538 10.6149 13.167 10.7367 13.2174C10.8585 13.2679 10.9627 13.3533 11.0359 13.463C11.1092 13.5726 11.1483 13.7015 11.1483 13.8333C11.1483 14.0102 11.078 14.1797 10.953 14.3047C10.828 14.4298 10.6584 14.5 10.4816 14.5ZM11.1483 11.8333C11.1483 12.0102 11.078 12.1797 10.953 12.3047C10.828 12.4298 10.6584 12.5 10.4816 12.5C10.3048 12.5 10.1352 12.4298 10.0102 12.3047C9.88516 12.1797 9.81493 12.0102 9.81493 11.8333V9.16667C9.81493 8.98986 9.88516 8.82029 10.0102 8.69527C10.1352 8.57025 10.3048 8.50001 10.4816 8.50001C10.6584 8.50001 10.828 8.57025 10.953 8.69527C11.078 8.82029 11.1483 8.98986 11.1483 9.16667V11.8333Z" fill="#FFDF6E"/>
</svg>
