<svg width="17" height="17" viewBox="0 0 17 17" fill="none" xmlns="http://www.w3.org/2000/svg">
<g clip-path="url(#clip0_367_979)">
<path d="M15.2344 4.29862L13.1472 2.21081C10.6242 -0.312201 6.1872 0.0202584 3.25584 2.9509C1.85087 4.35588 0.992835 6.1464 0.839716 7.99283C0.682458 9.88267 1.2777 11.6049 2.51576 12.8423C2.51715 12.8437 2.5185 12.8451 2.51989 12.8465L4.62079 14.9453C5.81471 15.9792 7.35212 16.4841 8.93365 16.4841C10.907 16.4841 12.9493 15.6971 14.4756 14.1707C17.2649 11.3814 17.6125 6.86027 15.2344 4.29862ZM13.5004 13.1954C11.5353 15.1605 8.55777 15.6516 6.42858 14.528C6.47065 14.5301 6.5141 14.5259 6.55619 14.5266C6.63207 14.5293 6.70656 14.5369 6.78241 14.5369C6.86379 14.5369 6.94656 14.5266 7.02865 14.5238C7.12865 14.5204 7.22868 14.5163 7.33007 14.508C7.49285 14.4956 7.65561 14.4749 7.81979 14.4514C7.90737 14.4383 7.99499 14.4259 8.08257 14.41C8.25777 14.3776 8.43294 14.3369 8.60747 14.2914C8.68609 14.2714 8.76472 14.2528 8.84267 14.23C9.02337 14.1776 9.20271 14.1148 9.38134 14.0479C9.45515 14.021 9.52893 13.9969 9.60207 13.9672C9.78141 13.8941 9.95796 13.8107 10.1345 13.7238C10.2056 13.6893 10.2773 13.6582 10.3476 13.621C10.5221 13.5293 10.6918 13.4251 10.8622 13.3196C10.9312 13.2768 11.0022 13.2382 11.0705 13.1933C11.2422 13.0788 11.4085 12.9526 11.5747 12.8236C11.6354 12.7767 11.6995 12.7347 11.7595 12.6857C11.9816 12.5036 12.1982 12.3098 12.4065 12.1015C13.8115 10.6965 14.6695 8.90598 14.8226 7.05956C14.8475 6.76848 14.8475 6.48293 14.8365 6.20085C14.8351 6.16774 14.8399 6.13256 14.8378 6.09878C15.9579 8.18041 15.4489 11.2469 13.5004 13.1954Z" fill="#0DC9A7"/>
</g>
<defs>
<clipPath id="clip0_367_979">
<rect width="16" height="16" fill="white" transform="translate(0.814941 0.5)"/>
</clipPath>
</defs>
</svg>
