<svg width="33" height="32" viewBox="0 0 33 32" fill="none" xmlns="http://www.w3.org/2000/svg">
<path d="M24.451 9.33998C23.0269 8.71399 21.5041 8.25903 19.9122 8C19.7167 8.33209 19.4883 8.77875 19.3308 9.13408C17.6385 8.89498 15.9618 8.89498 14.3006 9.13408C14.1432 8.77875 13.9095 8.33209 13.7123 8C12.1186 8.25903 10.5942 8.71565 9.17012 9.3433C6.2977 13.4213 5.51903 17.3981 5.90836 21.3184C7.8135 22.6551 9.65981 23.467 11.4749 23.9983C11.9231 23.4189 12.3228 22.8029 12.6672 22.1536C12.0113 21.9195 11.3832 21.6306 10.7897 21.2951C10.9472 21.1856 11.1012 21.071 11.25 20.9531C14.87 22.5438 18.803 22.5438 22.3798 20.9531C22.5303 21.071 22.6843 21.1856 22.84 21.2951C22.2448 21.6322 21.6149 21.9211 20.9591 22.1553C21.3034 22.8029 21.7014 23.4205 22.1513 24C23.9682 23.4687 25.8162 22.6567 27.7214 21.3184C28.1782 16.7738 26.941 12.8335 24.451 9.33998ZM13.1603 18.9075C12.0736 18.9075 11.1825 17.9543 11.1825 16.7937C11.1825 15.6331 12.0546 14.6783 13.1603 14.6783C14.266 14.6783 15.1571 15.6314 15.1381 16.7937C15.1399 17.9543 14.266 18.9075 13.1603 18.9075ZM20.4694 18.9075C19.3827 18.9075 18.4916 17.9543 18.4916 16.7937C18.4916 15.6331 19.3637 14.6783 20.4694 14.6783C21.5751 14.6783 22.4663 15.6314 22.4472 16.7937C22.4472 17.9543 21.5751 18.9075 20.4694 18.9075Z" fill="white"/>
</svg>
