<svg width="33" height="32" viewBox="0 0 33 32" fill="none" xmlns="http://www.w3.org/2000/svg">
<g clip-path="url(#clip0_113_1456)">
<path d="M7.52458 15.1974C7.52461 15.0207 7.55955 14.8457 7.62737 14.6826C7.6952 14.5194 7.79458 14.3713 7.91982 14.2466C8.04509 14.122 8.19369 14.0233 8.35718 13.9563C8.52066 13.8892 8.69578 13.8551 8.87248 13.856L11.1073 13.8633C11.4636 13.8633 11.8053 14.0048 12.0572 14.2568C12.3092 14.5087 12.4508 14.8504 12.4508 15.2067V23.6568C12.7023 23.5822 13.0255 23.5025 13.379 23.4193C13.6246 23.3616 13.8435 23.2226 14.0002 23.0249C14.1568 22.8271 14.242 22.5823 14.242 22.33V11.848C14.242 11.4917 14.3835 11.1499 14.6354 10.898C14.8874 10.646 15.2291 10.5044 15.5855 10.5043H17.8247C18.181 10.5044 18.5227 10.646 18.7747 10.898C19.0266 11.1499 19.1682 11.4917 19.1682 11.848V21.5763C19.1682 21.5763 19.7288 21.3494 20.2749 21.1189C20.4777 21.0332 20.6508 20.8895 20.7726 20.706C20.8944 20.5225 20.9594 20.3071 20.9596 20.0869V8.48934C20.9596 8.13308 21.1011 7.79138 21.353 7.53944C21.6049 7.2875 21.9466 7.14594 22.3028 7.14586H24.5421C24.8984 7.14586 25.2401 7.28739 25.4921 7.53936C25.744 7.7913 25.8856 8.13302 25.8856 8.48934V18.0396C27.8269 16.6327 29.7942 14.9406 31.3555 12.9059C31.5821 12.6105 31.7319 12.2637 31.7918 11.8964C31.8516 11.5291 31.8196 11.1526 31.6986 10.8006C30.9759 8.72136 29.8273 6.81582 28.3259 5.20599C26.8245 3.59618 25.0036 2.31749 22.9797 1.45179C20.9558 0.586097 18.7734 0.152442 16.5723 0.178583C14.3711 0.204723 12.1997 0.690084 10.197 1.6036C8.19419 2.51712 6.40416 3.83868 4.94145 5.48371C3.47874 7.12872 2.37555 9.061 1.70248 11.1569C1.02941 13.2527 0.80129 15.466 1.0327 17.6551C1.26412 19.8442 1.94998 21.9608 3.04639 23.8696C3.23739 24.1989 3.51839 24.4668 3.85637 24.642C4.19434 24.8171 4.57527 24.8921 4.95443 24.8583C5.37798 24.821 5.90533 24.7682 6.53232 24.6946C6.80526 24.6636 7.05725 24.5333 7.24027 24.3285C7.42333 24.1237 7.52461 23.8587 7.52484 23.584L7.52458 15.1974Z" fill="#A4ACBE"/>
<path d="M7.47559 28.7506C9.83586 30.4676 12.6252 31.4984 15.5349 31.7287C18.4447 31.9586 21.3614 31.3795 23.9623 30.0548C26.5633 28.73 28.747 26.7117 30.272 24.2229C31.7969 21.7341 32.6036 18.8719 32.6028 15.9531C32.6028 15.5889 32.5859 15.2285 32.5617 14.8703C26.7812 23.4916 16.108 27.5221 7.47608 28.7493" fill="white"/>
</g>
<defs>
<clipPath id="clip0_113_1456">
<rect width="32" height="32" fill="white" transform="translate(0.814941)"/>
</clipPath>
</defs>
</svg>
