<svg width="33" height="32" viewBox="0 0 33 32" fill="none" xmlns="http://www.w3.org/2000/svg">
<path d="M24.2986 17.0691C24.889 17.0691 25.3677 16.5905 25.3677 16C25.3677 15.4095 24.889 14.9309 24.2986 14.9309C23.7081 14.9309 23.2295 15.4095 23.2295 16C23.2295 16.5905 23.7081 17.0691 24.2986 17.0691Z" fill="#A4ACBE" stroke="white" stroke-width="2.1" stroke-linecap="round" stroke-linejoin="round"/>
<path d="M16.8149 17.0691C17.4054 17.0691 17.884 16.5905 17.884 16C17.884 15.4095 17.4054 14.9309 16.8149 14.9309C16.2245 14.9309 15.7458 15.4095 15.7458 16C15.7458 16.5905 16.2245 17.0691 16.8149 17.0691Z" fill="white" stroke="white" stroke-width="2.1" stroke-linecap="round" stroke-linejoin="round"/>
<path d="M9.33129 17.0691C9.92173 17.0691 10.4004 16.5905 10.4004 16C10.4004 15.4095 9.92173 14.9309 9.33129 14.9309C8.74086 14.9309 8.26221 15.4095 8.26221 16C8.26221 16.5905 8.74086 17.0691 9.33129 17.0691Z" stroke="white" stroke-width="2.1" stroke-linecap="round" stroke-linejoin="round"/>
</svg>
