<svg width="17" height="16" viewBox="0 0 17 16" fill="none" xmlns="http://www.w3.org/2000/svg">
<path fill-rule="evenodd" clip-rule="evenodd" d="M7.48145 0.666656C4.16774 0.666656 1.48145 3.35295 1.48145 6.66666C1.48145 9.98037 4.16774 12.6667 7.48145 12.6667C8.89812 12.6667 10.2001 12.1757 11.2266 11.3546L14.3434 14.4714C14.6037 14.7317 15.0258 14.7317 15.2862 14.4714C15.5465 14.211 15.5465 13.7889 15.2862 13.5286L12.1694 10.4118C12.9905 9.38533 13.4814 8.08333 13.4814 6.66666C13.4814 3.35295 10.7952 0.666656 7.48145 0.666656ZM2.81478 6.66666C2.81478 4.08933 4.90412 1.99999 7.48145 1.99999C10.0588 1.99999 12.1481 4.08933 12.1481 6.66666C12.1481 9.24399 10.0588 11.3333 7.48145 11.3333C4.90412 11.3333 2.81478 9.24399 2.81478 6.66666Z" fill="white"/>
</svg>
